<mxfile host="65bd71144e">
    <diagram id="5Q6WeomenHjLuVawHf_3" name="Page-1">
        <mxGraphModel dx="1844" dy="484" grid="1" gridSize="10" guides="1" tooltips="1" connect="1" arrows="1" fold="1" page="1" pageScale="1" pageWidth="850" pageHeight="1100" math="0" shadow="0">
            <root>
                <mxCell id="0"/>
                <mxCell id="1" parent="0"/>
                <mxCell id="7" style="edgeStyle=none;html=1;entryX=0;entryY=0.5;entryDx=0;entryDy=0;" edge="1" parent="1" source="2" target="6">
                    <mxGeometry relative="1" as="geometry"/>
                </mxCell>
                <mxCell id="2" value="/chargingstation?long=[long]&amp;amp;lat=[lat]&lt;br&gt;&amp;nbsp;&amp;nbsp;" style="shape=process;whiteSpace=wrap;html=1;backgroundOutline=1;" vertex="1" parent="1">
                    <mxGeometry x="60" y="50" width="330" height="60" as="geometry"/>
                </mxCell>
                <mxCell id="12" style="edgeStyle=none;html=1;" edge="1" parent="1" source="3" target="2">
                    <mxGeometry relative="1" as="geometry"/>
                </mxCell>
                <mxCell id="13" style="edgeStyle=none;html=1;" edge="1" parent="1" source="3" target="11">
                    <mxGeometry relative="1" as="geometry"/>
                </mxCell>
                <mxCell id="3" value="/chargingstation?postcode=GHT+3b1" style="shape=process;whiteSpace=wrap;html=1;backgroundOutline=1;" vertex="1" parent="1">
                    <mxGeometry x="60" y="140" width="330" height="60" as="geometry"/>
                </mxCell>
                <mxCell id="4" value="" style="shape=process;whiteSpace=wrap;html=1;backgroundOutline=1;" vertex="1" parent="1">
                    <mxGeometry x="60" y="230" width="120" height="60" as="geometry"/>
                </mxCell>
                <mxCell id="5" value="" style="shape=process;whiteSpace=wrap;html=1;backgroundOutline=1;" vertex="1" parent="1">
                    <mxGeometry x="60" y="320" width="120" height="60" as="geometry"/>
                </mxCell>
                <mxCell id="8" style="edgeStyle=none;html=1;" edge="1" parent="1" source="6">
                    <mxGeometry relative="1" as="geometry">
                        <mxPoint x="390" y="80" as="targetPoint"/>
                    </mxGeometry>
                </mxCell>
                <mxCell id="6" value="OCM&lt;br&gt;NPR" style="rounded=1;whiteSpace=wrap;html=1;" vertex="1" parent="1">
                    <mxGeometry x="650" y="50" width="120" height="60" as="geometry"/>
                </mxCell>
                <mxCell id="10" style="edgeStyle=none;html=1;entryX=0;entryY=0.5;entryDx=0;entryDy=0;" edge="1" parent="1" source="9" target="2">
                    <mxGeometry relative="1" as="geometry"/>
                </mxCell>
                <mxCell id="15" style="edgeStyle=none;html=1;entryX=0;entryY=0.5;entryDx=0;entryDy=0;" edge="1" parent="1" source="9" target="3">
                    <mxGeometry relative="1" as="geometry"/>
                </mxCell>
                <mxCell id="9" value="/api/" style="rounded=0;whiteSpace=wrap;html=1;" vertex="1" parent="1">
                    <mxGeometry x="-170" y="200" width="120" height="60" as="geometry"/>
                </mxCell>
                <mxCell id="14" style="edgeStyle=none;html=1;" edge="1" parent="1" source="11">
                    <mxGeometry relative="1" as="geometry">
                        <mxPoint x="530" y="80" as="targetPoint"/>
                    </mxGeometry>
                </mxCell>
                <mxCell id="11" value="Postcode.io" style="rounded=1;whiteSpace=wrap;html=1;" vertex="1" parent="1">
                    <mxGeometry x="470" y="140" width="120" height="60" as="geometry"/>
                </mxCell>
                <mxCell id="19" value="Actor" style="shape=umlActor;verticalLabelPosition=bottom;verticalAlign=top;html=1;outlineConnect=0;" vertex="1" parent="1">
                    <mxGeometry x="310" y="340" width="80" height="150" as="geometry"/>
                </mxCell>
                <mxCell id="20" value="Contract:&lt;br&gt;IF you call this api with either a postcode or a longitude or lattitude you should expect:&amp;nbsp;&lt;br&gt;An array of up to 10 objects [Obj(10)]&lt;br&gt;&lt;br&gt;Either object will have&amp;nbsp;&lt;br&gt;name:&lt;br&gt;long and lat:&lt;br&gt;Connectors: [{type:volatge}]&lt;br&gt;FAST: true&lt;br&gt;RAPID: false&lt;br&gt;SLOW: true&lt;br&gt;Available:&amp;nbsp;&lt;br&gt;ETF: int&lt;br&gt;Price&lt;br&gt;Subscriptions:[&quot;Tesla&quot;, &quot;SHELL&quot;]&lt;br&gt;NearbyPOI:[{&quot;Greggs&quot;, latLong}]&lt;br&gt;&lt;br&gt;&amp;nbsp;" style="rounded=0;whiteSpace=wrap;html=1;" vertex="1" parent="1">
                    <mxGeometry x="400" y="280" width="270" height="280" as="geometry"/>
                </mxCell>
            </root>
        </mxGraphModel>
    </diagram>
</mxfile>